HIERARCHY
ROOT Hips
{
	OFFSET -0.001795 -0.223333 0.028219
	CHANNELS 6 Xposition Yposition Zposition Zrotation Yrotation Xrotation 
	JOINT LeftUpLeg
	{
		OFFSET 0.069520 -0.091406 -0.006815
		CHANNELS 3 Zrotation Yrotation Xrotation
		JOINT LeftLeg
		{
			OFFSET 0.034277 -0.375199 -0.004496
			CHANNELS 3 Zrotation Yrotation Xrotation
			JOINT LeftFoot
			{
				OFFSET -0.013596 -0.397961 -0.043693
				CHANNELS 3 Zrotation Yrotation Xrotation
				JOINT LeftToe
				{
					OFFSET 0.026358 -0.055791 0.119288
					CHANNELS 3 Zrotation Yrotation Xrotation
					End Site
					{
						OFFSET 0.000000 0.000000 0.000000
					}
				}
			}
		}
	}
	JOINT RightUpLeg
	{
		OFFSET -0.067670 -0.090522 -0.004320
		CHANNELS 3 Zrotation Yrotation Xrotation
		JOINT RightLeg
		{
			OFFSET -0.038290 -0.382569 -0.008850
			CHANNELS 3 Zrotation Yrotation Xrotation
			JOINT RightFoot
			{
				OFFSET 0.015774 -0.398415 -0.042312
				CHANNELS 3 Zrotation Yrotation Xrotation
				JOINT RightToe
				{
					OFFSET -0.025372 -0.048144 0.123348
					CHANNELS 3 Zrotation Yrotation Xrotation
					End Site
					{
						OFFSET 0.000000 0.000000 0.000000
					}
				}
			}
		}
	}
	JOINT Spine
	{
		OFFSET -0.002533 0.108963 -0.026696
		CHANNELS 3 Zrotation Yrotation Xrotation
		JOINT Spine1
		{
			OFFSET 0.005487 0.135180 0.001092
			CHANNELS 3 Zrotation Yrotation Xrotation
			JOINT Spine2
			{
				OFFSET 0.001457 0.052922 0.025425
				CHANNELS 3 Zrotation Yrotation Xrotation
				JOINT Neck
				{
					OFFSET -0.002778 0.213870 -0.042857
					CHANNELS 3 Zrotation Yrotation Xrotation
					JOINT Head
					{
						OFFSET 0.005152 0.064970 0.051349
						CHANNELS 3 Zrotation Yrotation Xrotation
						End Site
						{
							OFFSET 0.000000 0.000000 0.000000
						}
					}
				}
				JOINT LeftShoulder
				{
					OFFSET 0.078845 0.121749 -0.034090
					CHANNELS 3 Zrotation Yrotation Xrotation
					JOINT LeftArm
					{
						OFFSET 0.090977 0.030469 -0.008868
						CHANNELS 3 Zrotation Yrotation Xrotation
						JOINT LeftForeArm
						{
							OFFSET 0.259612 -0.012772 -0.027456
							CHANNELS 3 Zrotation Yrotation Xrotation
							JOINT LeftHand
							{
								OFFSET 0.249234 0.008986 -0.001171
								CHANNELS 3 Zrotation Yrotation Xrotation
								End Site
								{
									OFFSET 0.000000 0.000000 0.000000
								}
							}
						}
					}
				}
				JOINT RightShoulder
				{
					OFFSET -0.081759 0.118833 -0.038615
					CHANNELS 3 Zrotation Yrotation Xrotation
					JOINT RightArm
					{
						OFFSET -0.096012 0.032551 -0.009143
						CHANNELS 3 Zrotation Yrotation Xrotation
						JOINT RightForeArm
						{
							OFFSET -0.253742 -0.013329 -0.021401
							CHANNELS 3 Zrotation Yrotation Xrotation
							JOINT RightHand
							{
								OFFSET -0.255298 0.007772 -0.005559
								CHANNELS 3 Zrotation Yrotation Xrotation
								End Site
								{
									OFFSET 0.000000 0.000000 0.000000
								}
							}
						}
					}
				}
			}
		}
	}
}
MOTION
Frames: 9
Frame Time: 0.050000
0.000000 0.973104 0.000000 -0.123231 7.378692 3.197864 -0.087157 0.058878 0.623467 -0.672445 0.167691 -3.873048 -4.962085 -0.107335 17.110322 0.000000 0.000000 0.000000 2.300723 0.044067 -0.681576 -0.923887 0.099998 -0.203135 5.989896 7.088340 13.567773 0.000000 0.000000 0.000000 -0.247002 -0.022832 0.690028 1.540722 -0.734736 -0.128175 -0.695115 -2.137095 3.252936 1.908647 0.105100 -15.241252 0.000000 0.000000 0.000000 -26.925353 -4.408896 -0.703319 -43.288318 -3.998346 -3.416565 -9.530859 -27.316277 3.234509 0.000000 0.000000 0.000000 26.393267 3.584906 0.325743 48.358189 7.186764 -1.981855 2.025760 24.632675 1.303900 0.000000 0.000000 0.000000 
0.000214 0.971649 -0.000978 -0.003150 7.712956 3.615847 -0.226055 0.027629 0.192898 -0.736769 0.174455 -4.044531 -4.896113 -0.098346 16.800150 0.000000 0.000000 0.000000 1.423111 0.127546 -1.289301 0.196030 -0.033951 -0.277009 6.230832 7.397320 13.963705 0.000000 0.000000 0.000000 -0.495954 -0.005614 0.368753 1.107949 -0.516545 -0.318548 -0.313743 -2.436916 3.593771 1.708634 0.361354 -16.991718 0.000000 0.000000 0.000000 -26.241785 -4.195353 -0.681899 -44.601614 -3.410858 -3.792342 -8.727315 -28.500604 3.195012 0.000000 0.000000 0.000000 25.679827 2.436668 -0.424525 49.597412 6.627134 -2.231659 1.837459 25.978829 1.346116 0.000000 0.000000 0.000000 
0.000657 0.970896 -0.001627 0.118768 7.869480 3.977755 0.095654 -0.048658 -0.580520 -1.046905 0.176486 -3.336788 -5.776451 -1.566507 16.528232 0.000000 0.000000 0.000000 1.458804 0.153209 -1.517305 -0.003279 -0.016205 -0.431975 5.873313 7.017485 13.405971 0.000000 0.000000 0.000000 -0.200980 -0.013178 0.404335 0.894347 -0.334793 -1.591431 -0.771699 -2.890464 4.654045 1.507980 0.358493 -15.994955 0.000000 0.000000 0.000000 -24.984478 -3.704289 -0.745349 -45.374306 -3.144473 -4.080783 -9.134358 -27.304627 3.177805 0.000000 0.000000 0.000000 26.254390 2.886091 -0.208305 48.773278 5.898389 -2.571053 1.836861 26.127326 1.353809 0.000000 0.000000 0.000000 
0.001295 0.971345 -0.001901 -0.040073 8.434214 4.319783 -0.112927 -0.081505 -1.041958 -0.781843 0.154812 -3.179826 -5.260935 -0.904986 16.052567 0.000000 0.000000 0.000000 1.331713 0.196557 -1.876881 0.617184 -0.089914 -0.446994 5.590059 6.462558 13.613370 0.000000 0.000000 0.000000 0.020859 -0.012453 0.244405 0.447600 -0.171462 -0.886253 -0.426391 -3.452610 3.977254 0.978919 0.681830 -16.448443 0.000000 0.000000 0.000000 -25.132907 -3.196829 -0.964992 -45.754432 -2.675603 -4.260738 -8.809346 -27.457586 3.132044 0.000000 0.000000 0.000000 26.281723 2.826581 -0.412766 48.348503 5.052273 -2.770700 2.392303 25.934405 1.429692 0.000000 0.000000 0.000000 
0.002222 0.971363 -0.001647 0.060221 8.544078 4.378466 -0.224351 -0.088832 -1.161844 -0.915058 0.160855 -3.094501 -5.236075 -0.782315 16.186114 0.000000 0.000000 0.000000 1.211999 0.181897 -1.740605 0.440695 -0.070200 -0.478895 5.621942 6.759294 13.163516 0.000000 0.000000 0.000000 0.152268 -0.026918 0.528641 0.368198 -0.120453 -1.122156 -0.715485 -3.448176 4.122842 0.779662 0.786737 -16.110265 0.000000 0.000000 0.000000 -25.090453 -3.099652 -1.061309 -45.797940 -2.005268 -4.504124 -9.383566 -26.779568 3.180186 0.000000 0.000000 0.000000 26.446280 2.721526 -0.434550 47.795399 4.742328 -2.886713 3.062583 25.488383 1.545993 0.000000 0.000000 0.000000 
0.003501 0.971084 -0.000788 0.202705 8.901540 4.535726 -0.763471 -0.071094 -1.133733 -0.357838 0.128793 -3.222387 -5.297894 -0.974997 15.860837 0.000000 0.000000 0.000000 0.880329 0.182754 -1.728103 0.746065 -0.105082 -0.422323 5.328052 6.463317 12.701510 0.000000 0.000000 0.000000 0.164742 -0.024015 0.442694 0.284728 -0.087850 -1.021160 -0.719213 -3.763660 4.212654 0.183561 1.177090 -16.803744 0.000000 0.000000 0.000000 -25.251089 -2.757959 -1.232623 -45.999586 -1.765762 -4.633234 -9.469025 -26.203440 3.137361 0.000000 0.000000 0.000000 26.187148 2.761362 -0.437314 47.989441 4.567280 -2.957713 3.254259 24.949631 1.542543 0.000000 0.000000 0.000000 
0.005069 0.970229 0.000442 0.298903 9.069318 4.549799 -0.873233 -0.066366 -1.118910 -0.262573 0.121101 -3.165403 -5.708041 -1.604169 15.831093 0.000000 0.000000 0.000000 0.963402 0.176966 -1.675026 0.423289 -0.064334 -0.349152 5.008746 6.029075 12.354786 0.000000 0.000000 0.000000 0.207060 -0.033196 0.642687 0.344733 -0.111890 -1.076729 -1.025409 -3.796383 4.250043 0.274883 1.141078 -16.868718 0.000000 0.000000 0.000000 -25.534435 -2.483606 -1.471347 -46.080855 -1.460449 -4.738648 -9.289068 -25.396200 2.989808 0.000000 0.000000 0.000000 25.924425 2.658547 -0.438990 48.120337 4.244315 -3.098782 3.363945 24.790081 1.559212 0.000000 0.000000 0.000000 
0.006869 0.969592 0.001738 0.291789 9.024090 4.555243 -1.073298 -0.054352 -1.046849 0.009000 0.099235 -3.001346 -5.764232 -1.939215 15.362453 0.000000 0.000000 0.000000 0.864453 0.183257 -1.729226 0.528136 -0.067609 -0.050730 4.827742 5.827784 12.002836 0.000000 0.000000 0.000000 0.298256 -0.039792 0.740647 0.259721 -0.080625 -0.948376 -1.047631 -3.770536 4.168565 0.368813 1.084798 -16.850031 0.000000 0.000000 0.000000 -25.801368 -2.496503 -1.493852 -46.100362 -1.125284 -4.853242 -9.382224 -24.821099 2.938730 0.000000 0.000000 0.000000 25.835729 2.547846 -0.506449 48.287547 3.953857 -3.210721 3.369567 24.577343 1.544498 0.000000 0.000000 0.000000 
0.008768 0.969169 0.003001 0.314488 8.840734 4.651448 -1.229536 -0.054116 -1.085493 -0.015675 0.099129 -2.942107 -5.603707 -1.760493 15.271208 0.000000 0.000000 0.000000 0.806373 0.204776 -1.928968 0.530029 -0.062165 0.125729 4.665003 5.457282 12.052094 0.000000 0.000000 0.000000 0.222224 -0.035552 0.687286 0.310470 -0.114829 -0.779368 -1.028747 -3.696185 4.022417 0.439529 1.040975 -16.845231 0.000000 0.000000 0.000000 -25.981455 -2.421311 -1.554055 -46.335984 -1.010030 -4.909193 -9.417641 -24.246061 2.875536 0.000000 0.000000 0.000000 25.634968 2.799126 -0.354121 48.281560 3.872805 -3.221365 3.458298 24.476368 1.550936 0.000000 0.000000 0.000000 
